<?xml version="1.0" standalone="no"?>
<!DOCTYPE svg PUBLIC "-//W3C//DTD SVG 20010904//EN"
 "http://www.w3.org/TR/2001/REC-SVG-20010904/DTD/svg10.dtd">
<svg version="1.0" xmlns="http://www.w3.org/2000/svg"
 width="753.000000pt" height="753.000000pt" viewBox="0 0 753.000000 753.000000"
 preserveAspectRatio="xMidYMid meet">
<metadata>
Created by potrace 1.14, written by Peter Selinger 2001-2017
</metadata>
<g transform="translate(0.000000,753.000000) scale(0.100000,-0.100000)"
fill="#000000" stroke="none">
<path d="M2237 4994 c-1 -1 -35 -5 -76 -8 -351 -33 -701 -274 -874 -603 -41
-78 -102 -254 -112 -323 -13 -85 -21 -201 -15 -211 4 -6 59 -9 141 -7 l134 3
1 40 c6 166 77 367 172 485 79 97 98 119 110 119 6 1 12 5 12 9 0 20 184 138
225 145 11 2 30 8 41 15 12 6 24 8 28 5 3 -3 6 -1 6 5 0 10 15 15 78 27 13 2
33 7 45 11 11 4 66 7 121 9 250 5 470 -85 645 -264 67 -69 140 -179 170 -257
13 -33 27 -68 31 -79 16 -39 31 -118 37 -196 l6 -79 140 0 139 0 -7 93 c-21
284 -144 549 -342 738 -166 158 -341 251 -573 304 -43 10 -275 26 -283 19z"/>
<path d="M2235 4518 c-233 -22 -438 -183 -536 -421 -16 -39 -29 -73 -29 -75 1
-1 -1 -21 -5 -43 -4 -23 -8 -63 -10 -90 l-3 -49 139 0 c76 0 139 3 139 8 6
118 47 210 127 289 80 77 149 106 251 105 176 -2 347 -178 354 -364 l1 -38
137 0 c75 0 139 2 141 5 9 8 -11 159 -27 210 -55 169 -198 335 -352 410 -96
46 -208 65 -327 53z"/>
<path d="M5997 3719 c-51 -8 -78 -37 -82 -85 -5 -78 33 -113 122 -114 82 0
115 25 119 92 5 85 -55 125 -159 107z"/>
<path d="M899 3672 c-8 -2 -21 -6 -29 -8 -8 -3 -16 -5 -18 -5 -14 5 -107 -57
-136 -91 -20 -24 -43 -50 -50 -58 -19 -21 -40 -142 -39 -221 3 -183 105 -318
266 -348 177 -33 334 37 391 173 9 21 16 44 16 50 0 6 -39 22 -87 35 -49 13
-93 26 -100 28 -6 3 -14 -8 -18 -24 -13 -57 -59 -91 -120 -87 -46 4 -84 29
-105 70 -19 37 -21 204 -3 226 7 8 10 17 7 20 -3 3 7 15 22 27 73 57 161 42
190 -35 9 -24 20 -44 24 -44 4 0 29 9 56 21 27 11 58 24 69 29 11 4 28 11 38
14 22 7 22 26 -4 81 -24 51 -65 90 -122 115 -24 11 -34 20 -25 23 16 7 -1 8
-118 11 -50 1 -97 0 -105 -2z"/>
<path d="M3235 3659 c-11 -4 -49 -15 -85 -24 -36 -10 -71 -19 -77 -21 -9 -2
-13 -23 -13 -59 l0 -55 -45 0 -45 0 0 -84 0 -84 41 0 c23 -1 43 -2 45 -4 2 -2
4 -62 5 -133 1 -162 16 -202 87 -237 58 -28 156 -33 221 -12 70 24 75 31 61
100 -17 89 -15 87 -49 69 -33 -17 -69 -19 -89 -6 -10 6 -14 38 -16 107 -1 54
-1 104 1 109 2 6 35 9 78 8 l75 -3 0 85 0 84 -77 3 -78 3 1 81 c1 83 -2 88
-41 73z"/>
<path d="M4111 3660 c-5 -3 -9 -166 -10 -362 l-2 -358 100 0 101 0 1 198 1
197 39 -120 c22 -66 41 -126 43 -135 1 -8 13 -43 25 -77 l24 -63 87 0 87 0 13
48 c7 26 16 52 19 57 3 6 7 17 8 25 5 28 82 255 84 245 0 -5 1 -92 2 -192 l1
-183 98 0 98 0 1 33 c0 41 0 680 0 687 -1 3 -62 5 -137 5 -150 0 -143 2 -159
-65 -4 -16 -103 -338 -109 -355 -4 -12 -1 -22 -71 210 -32 105 -61 194 -66
200 -9 9 -264 14 -278 5z"/>
<path d="M1605 3493 c-16 -9 -36 -23 -45 -31 -13 -14 -15 -13 -18 11 l-3 27
-97 0 -97 0 0 -277 0 -278 102 -3 c68 -2 104 1 108 8 4 7 8 81 9 167 l1 155
30 24 c32 26 91 32 125 14 17 -9 20 -5 26 40 4 28 10 48 14 43 13 -16 41 -103
36 -112 -4 -5 -2 -11 4 -13 6 -2 12 -13 14 -25 3 -12 10 -31 16 -42 6 -12 7
-21 3 -21 -4 0 -3 -4 3 -8 7 -4 33 -54 58 -112 42 -93 45 -107 35 -132 -17
-42 -68 -49 -132 -18 -15 7 -29 11 -31 9 -2 -2 -13 -37 -25 -78 -24 -88 -21
-93 68 -112 71 -15 161 -5 209 22 85 49 104 89 308 657 l33 92 -109 0 c-109 0
-110 0 -116 -25 -3 -14 -10 -25 -15 -25 -5 0 -6 -6 -3 -13 3 -8 0 -27 -7 -43
-6 -16 -13 -39 -15 -51 -1 -13 -6 -33 -10 -45 -10 -28 -9 -24 -18 -70 -14 -67
-18 -60 -76 155 l-32 117 -107 2 c-58 0 -131 2 -161 4 -35 1 -66 -4 -85 -13z"/>
<path d="M2661 3499 c-19 -6 -46 -20 -60 -31 l-26 -20 -3 26 -3 26 -100 0 -99
0 2 -387 3 -388 102 -1 c116 -1 116 -1 113 84 -1 26 -1 75 -1 110 l1 63 30
-23 c40 -29 147 -31 199 -4 92 49 140 148 136 281 -5 124 -47 205 -131 252
-31 17 -123 24 -163 12z m26 -165 c33 -9 53 -61 49 -127 -4 -61 -16 -84 -54
-98 -55 -21 -92 27 -92 116 0 68 22 104 70 114 3 0 15 -2 27 -5z"/>
<path d="M3612 3483 c-55 -22 -89 -50 -141 -119 -15 -19 -28 -97 -25 -155 4
-95 21 -137 77 -193 59 -59 106 -77 207 -81 126 -6 223 48 271 149 25 52 28
69 26 140 -6 178 -99 273 -276 280 -63 3 -88 -1 -139 -21z m182 -177 c10 -20
16 -60 16 -98 0 -55 -3 -68 -24 -88 -27 -25 -68 -29 -91 -10 -35 29 -42 157
-11 205 13 20 25 25 55 25 34 0 41 -4 55 -34z"/>
<path d="M5235 3503 c-49 -6 -117 -37 -149 -70 -12 -12 -35 -46 -51 -75 -26
-47 -29 -62 -28 -138 1 -179 92 -275 272 -287 89 -6 168 16 221 63 36 33 64
80 57 98 -3 7 -32 21 -66 31 -34 10 -61 21 -61 25 0 3 29 5 65 4 62 -2 65 -1
71 23 4 14 4 53 2 87 -14 168 -142 260 -333 239z m113 -190 l14 -23 -71 0
c-68 0 -71 1 -61 19 13 25 27 30 69 28 22 -1 39 -9 49 -24z m32 -169 c0 -28
-43 -48 -97 -45 -22 1 -63 33 -63 49 0 4 36 7 80 7 52 0 80 -4 80 -11z"/>
<path d="M6420 3496 c-58 -12 -124 -47 -152 -81 -34 -40 -69 -127 -69 -174 -1
-85 24 -167 66 -214 55 -62 116 -89 212 -93 140 -6 236 45 286 153 32 69 31
199 -2 265 -57 118 -195 176 -341 144z m121 -175 c21 -17 24 -29 26 -91 2
-110 -25 -147 -94 -128 -27 7 -34 15 -44 50 -16 62 -6 148 21 170 29 23 62 23
91 -1z"/>
<path d="M5930 3482 c-1 -39 -2 -518 -1 -530 1 -10 26 -12 108 -10 l107 3 1
275 0 275 -108 2 c-94 1 -107 0 -107 -15z"/>
<path d="M5673 3141 c-34 -16 -44 -27 -54 -59 -22 -76 15 -135 94 -147 106
-16 179 75 132 166 -27 52 -106 70 -172 40z"/>
</g>
</svg>
