<?xml version="1.0" standalone="no"?>
<!DOCTYPE svg PUBLIC "-//W3C//DTD SVG 20010904//EN"
 "http://www.w3.org/TR/2001/REC-SVG-20010904/DTD/svg10.dtd">
<svg version="1.0" xmlns="http://www.w3.org/2000/svg"
 width="512.000000pt" height="512.000000pt" viewBox="0 0 512.000000 512.000000"
 preserveAspectRatio="xMidYMid meet">
<metadata>
Created by potrace 1.14, written by Peter Selinger 2001-2017
</metadata>
<g transform="translate(0.000000,512.000000) scale(0.100000,-0.100000)"
fill="#000000" stroke="none">
<path d="M2105 5099 c-364 -65 -725 -216 -1024 -429 -576 -409 -960 -1032
-1062 -1725 -27 -184 -27 -566 0 -750 102 -693 486 -1316 1062 -1725 339 -241
749 -399 1169 -450 61 -8 194 -10 365 -8 223 4 292 9 395 27 520 94 989 340
1365 716 391 390 646 895 726 1440 27 184 27 566 0 750 -102 693 -486 1316
-1062 1725 -275 196 -609 342 -954 417 -116 25 -133 26 -495 29 -337 3 -386 1
-485 -17z m-219 -881 c-3 -79 -8 -312 -11 -518 -3 -206 -8 -394 -11 -417 l-5
-42 68 46 c101 68 276 149 378 175 80 20 113 23 300 22 195 0 217 -2 308 -27
312 -84 570 -293 720 -585 159 -308 193 -711 87 -1052 -65 -211 -168 -378
-325 -528 -222 -212 -461 -304 -790 -305 -163 -1 -267 14 -395 58 -82 28 -219
99 -294 152 l-49 35 7 -79 c4 -43 9 -90 12 -105 l6 -28 -266 0 -266 0 0 1670
0 1670 266 0 267 0 -7 -142z m2311 -2533 c147 -44 243 -194 230 -361 -7 -90
-32 -149 -92 -213 -67 -71 -128 -96 -240 -96 -82 0 -97 3 -156 32 -109 54
-169 150 -177 284 -7 128 34 225 130 302 76 61 201 83 305 52z"/>
<path d="M2455 2994 c-11 -2 -45 -9 -75 -15 -178 -36 -339 -169 -425 -351 -62
-130 -78 -212 -78 -388 0 -183 17 -262 87 -405 111 -223 294 -340 552 -352
187 -9 330 31 461 131 244 185 344 576 232 909 -42 128 -80 190 -173 283 -89
90 -175 140 -286 169 -62 16 -255 29 -295 19z"/>
</g>
</svg>
